# xmcd
#
# Track frame offsets:
# 150
# 11864
# 25263
# 45097
# 61758
# 80552
# 98836
# 116839
# 128561
# 148325
# 162830
# 194901
#
# Disc length: 2604 seconds
#
#
# Revision: 0
# Processed by: cddbd v1.5.1PL2 Copyright (c) Steve Scherf et al.
# Submitted via: FreeRIP 2.51 
#
DISCID=a20a2a0c
DTITLE=Barlow Girl - Another Journal Entry
DYEAR=2005
DGENRE=Contemporary Christian
TTITLE0=Grey
TTITLE1=Let Go
TTITLE2=I Need You to Love Me
TTITLE3=Enough
TTITLE4=Porcelain Heart
TTITLE5=Take Me Away
TTITLE6=Psalm 73 (My God's Enough), Feat. Todd Agnew
TTITLE7=5 Minutes of Fame
TTITLE8=Thoughts of You
TTITLE9=No One Like You
TTITLE10=Never Alone (acoustic version)
TTITLE11=data
EXTD=
EXTT0=
EXTT1=
EXTT2=
EXTT3=
EXTT4=
EXTT5=
EXTT6=
EXTT7=
EXTT8=
EXTT9=
EXTT10=
EXTT11=
PLAYORDER=
